<?xml version="1.0" encoding="UTF-8"?>
<svg version="1.1" xmlns="http://www.w3.org/2000/svg" width="1024" height="1024">
<path d="M0 0 C1.10053711 0.63147949 2.20107422 1.26295898 3.33496094 1.91357422 C6.54488001 3.76061476 9.74302982 5.62639523 12.9375 7.5 C14.16025635 8.21397949 14.16025635 8.21397949 15.40771484 8.94238281 C18.8584385 10.95869101 22.30094649 12.98830984 25.73828125 15.02734375 C30.4220079 17.79748125 35.14697715 20.49386848 39.875 23.1875 C58.29754063 33.68741127 76.65083055 44.30644915 94.95703125 55.0078125 C99.09583448 57.42695769 103.23960273 59.83732149 107.38671875 62.2421875 C108.45196777 62.86085693 109.5172168 63.47952637 110.61474609 64.11694336 C112.62836567 65.28619746 114.64293455 66.45381913 116.65869141 67.61938477 C121.47147578 70.41711486 126.24600517 73.26972978 130.97265625 76.2109375 C131.86218994 76.76442871 132.75172363 77.31791992 133.66821289 77.88818359 C137.90275548 80.89587054 139.93783287 84.40636602 140.9375 89.5 C141.02855314 91.24441788 141.06656554 92.99193846 141.06892776 94.73872948 C141.07276891 95.80542913 141.07661005 96.87212878 141.0805676 97.97115266 C141.07970112 99.14214781 141.07883463 100.31314296 141.07794189 101.5196228 C141.08239858 103.38662446 141.08239858 103.38662446 141.0869453 105.29134333 C141.09412665 108.74821751 141.09680469 112.205042 141.09754276 115.66192007 C141.09939381 119.38933971 141.10694133 123.11674858 141.11367798 126.84416199 C141.12725887 134.994893 141.13328542 143.14561909 141.13768864 151.29635954 C141.14045103 156.38470406 141.14468834 161.47304668 141.14919281 166.56138992 C141.16138432 180.64720478 141.17168441 194.73301811 141.1750679 208.81883812 C141.17528747 209.7203097 141.17550703 210.62178127 141.17573325 211.55057017 C141.17595153 212.45420415 141.17616981 213.35783813 141.1763947 214.28885496 C141.17683817 216.11997883 141.17728473 217.95110269 141.17773438 219.78222656 C141.1779558 220.6905282 141.17817723 221.59882984 141.17840537 222.53465576 C141.18235481 237.25788493 141.19981379 251.98106464 141.2230939 266.7042747 C141.24679759 281.81721813 141.25926928 296.93013672 141.26043582 312.04309905 C141.26135304 320.52980151 141.26711742 329.01643951 141.28525543 337.50312424 C141.30064306 344.72838348 141.30578475 351.95355834 141.29751733 359.17883085 C141.29360628 362.86565068 141.29456248 366.55230051 141.30857468 370.2390995 C141.32362291 374.23499293 141.31546079 378.23050199 141.30499268 382.22640991 C141.31304908 383.39294361 141.32110548 384.55947732 141.32940602 385.76136053 C141.28952779 392.24802161 141.05714936 397.32180004 136.27246094 402.19628906 C130.82858353 406.07738583 125.14538293 409.22670204 119.1875 412.25 C117.67784668 413.02706299 117.67784668 413.02706299 116.13769531 413.81982422 C108.85343129 417.55813325 101.5306657 421.2193283 94.19799805 424.86157227 C87.98553686 427.9539728 81.83701598 431.15469792 75.70507812 434.40332031 C68.39032571 438.27461292 61.04087604 442.07778436 53.6875 445.875 C40.52469945 452.67485879 40.52469945 452.67485879 27.375 459.5 C26.47426758 459.96825195 25.57353516 460.43650391 24.64550781 460.91894531 C19.24965368 463.73557737 13.88415536 466.6035628 8.53515625 469.5078125 C7.26052425 470.19796507 5.9858661 470.88806934 4.71118164 471.578125 C2.24894422 472.91141033 -0.20801885 474.25379696 -2.66235352 475.6015625 C-3.78440186 476.21 -4.9064502 476.8184375 -6.0625 477.4453125 C-7.5475 478.25766357 -7.5475 478.25766357 -9.0625 479.08642578 C-15.66349261 482.19675677 -21.05770611 483.31709129 -28.0625 481.5 C-37.28745979 477.41009847 -45.99628685 472.33296731 -54.625 467.125 C-56.38526445 466.07047998 -58.1466543 465.01785781 -59.90815735 463.96540833 C-61.1235536 463.23920573 -62.33862991 462.51246742 -63.5533905 461.78520203 C-67.77899026 459.2576035 -72.02034478 456.75837462 -76.2734375 454.27734375 C-76.86896423 453.92993134 -77.46449097 453.58251892 -78.07806396 453.22457886 C-79.28272087 452.52201494 -80.48741245 451.81951048 -81.69213867 451.11706543 C-93.37980373 444.29939234 -104.98269176 437.35270534 -116.52709961 430.29516602 C-118.66079749 428.99160372 -120.79916154 427.69564141 -122.94262695 426.40820312 C-125.08189453 425.09976621 -127.19434455 423.74675303 -129.28198242 422.35742188 C-135.1091208 418.34427709 -135.1091208 418.34427709 -141.85546875 418.109375 C-143.57065398 419.05720148 -143.57065398 419.05720148 -145.25 420.25 C-146.6106329 421.05176823 -147.97271855 421.85107416 -149.3359375 422.6484375 C-150.07811523 423.10444336 -150.82029297 423.56044922 -151.58496094 424.03027344 C-156.38761327 426.87930448 -161.4051066 429.33346652 -166.375 431.875 C-168.55330067 433.00807945 -170.7303965 434.14347832 -172.90625 435.28125 C-173.95683594 435.83039063 -175.00742187 436.37953125 -176.08984375 436.9453125 C-177.56130859 437.71488281 -177.56130859 437.71488281 -179.0625 438.5 C-179.89652344 438.93570312 -180.73054687 439.37140625 -181.58984375 439.8203125 C-190.31949533 444.38387403 -199.01455621 449.00807241 -207.68701172 453.67944336 C-213.80332268 456.96965862 -219.92914852 460.241686 -226.0625 463.5 C-226.76739563 463.87455322 -227.47229126 464.24910645 -228.19854736 464.63500977 C-232.64706062 466.99580297 -237.10314923 469.34146537 -241.5680542 471.67111206 C-243.00737209 472.42402723 -244.44480154 473.18056505 -245.88018799 473.94094849 C-263.34051 483.18056322 -263.34051 483.18056322 -272.01953125 481.9296875 C-276.87404682 480.42290719 -281.29358913 478.03508688 -285.75 475.625 C-286.66499268 475.13813721 -287.57998535 474.65127441 -288.52270508 474.1496582 C-295.70256737 470.30192065 -302.77442712 466.27478152 -309.82617188 462.19824219 C-316.89762111 458.12418847 -324.05614112 454.22822043 -331.25 450.375 C-341.57562931 444.84389409 -351.84448988 439.22702987 -362.0625 433.5 C-363.98953049 432.42178056 -365.91661742 431.34366196 -367.84375 430.265625 C-370.99659364 428.50166976 -374.14881201 426.73663619 -377.29931641 424.96850586 C-382.81259819 421.87457395 -388.33273542 418.79420614 -393.8671875 415.73828125 C-395.53382446 414.81450684 -395.53382446 414.81450684 -397.23413086 413.87207031 C-399.34185991 412.70420848 -401.45189131 411.54048775 -403.56469727 410.38183594 C-421.90941642 400.19422977 -421.90941642 400.19422977 -425.0625 393.5 C-426.31644206 387.121291 -426.20784555 380.76664304 -426.20294189 374.28492737 C-426.20591302 373.05544166 -426.20888414 371.82595595 -426.2119453 370.5592131 C-426.21910341 367.15858422 -426.22180287 363.75800588 -426.22254276 360.35737312 C-426.22439942 356.68518314 -426.23194961 353.01300399 -426.23867798 349.34082031 C-426.25223468 341.31822777 -426.25828132 333.29564024 -426.26268864 325.27303815 C-426.26545449 320.26221883 -426.26969236 315.25140144 -426.27419281 310.24058342 C-426.28637995 296.36138944 -426.29668169 282.48219699 -426.3000679 268.60299778 C-426.30028747 267.71550514 -426.30050703 266.82801249 -426.30073325 265.91362613 C-426.30095153 265.02404716 -426.30116981 264.13446819 -426.3013947 263.21793228 C-426.30183816 261.4153891 -426.30228473 259.61284592 -426.30273438 257.81030273 C-426.3029558 256.91618468 -426.30317723 256.02206663 -426.30340537 255.10085409 C-426.30735539 240.60549486 -426.32481808 226.11018583 -426.3480939 211.614846 C-426.37180911 196.72554037 -426.38426976 181.83625994 -426.38543582 166.94693512 C-426.38635226 158.58988103 -426.3920973 150.23289244 -426.41025543 141.8758564 C-426.42565841 134.76198401 -426.43077557 127.64819738 -426.42251733 120.53431148 C-426.41861207 116.90595467 -426.41953437 113.27777058 -426.43357468 109.64943504 C-426.4486657 105.71356767 -426.44044378 101.77794307 -426.42999268 97.84205627 C-426.43804908 96.69895841 -426.44610548 95.55586054 -426.45440602 94.37812334 C-426.41148495 87.47337619 -425.99451664 81.28819105 -421.60522461 75.6171875 C-416.58538119 71.66531325 -411.22796563 68.55564239 -405.625 65.5 C-403.55905309 64.35307922 -401.49397532 63.20459172 -399.4296875 62.0546875 C-398.37362305 61.4678418 -397.31755859 60.88099609 -396.22949219 60.27636719 C-391.19964051 57.45512136 -386.22432918 54.54270676 -381.25 51.625 C-372.6873473 46.60937026 -364.10200062 41.63533951 -355.5 36.6875 C-348.82194042 32.8438658 -342.15105998 28.9954452 -335.5625 25 C-327.70566936 20.24454988 -319.74175067 15.67778644 -311.77783203 11.10449219 C-306.79561756 8.24115054 -301.82002684 5.37151178 -296.890625 2.41796875 C-296.12733887 1.96156006 -295.36405273 1.50515137 -294.57763672 1.03491211 C-293.21126805 0.21456094 -291.84796998 -0.61094127 -290.48876953 -1.44311523 C-284.21889231 -5.20354438 -277.98086644 -8.50249982 -270.54003906 -7.18115234 C-262.18922579 -4.88525473 -254.4307064 1.83741549 -247.3125 6.625 C-245.20450396 8.03657314 -243.09642705 9.44802553 -240.98828125 10.859375 C-239.86278345 11.61391809 -238.73729538 12.3684757 -237.61181641 13.12304688 C-231.8924146 16.95554721 -226.16127289 20.77046656 -220.4317627 24.58782959 C-216.77508112 27.02434642 -213.119169 29.46201761 -209.46325684 31.89968872 C-206.39894021 33.9427933 -203.33415123 35.98518348 -200.26855469 38.02636719 C-194.34386452 41.97218843 -188.42452628 45.92519539 -182.5234375 49.90625 C-181.51152344 50.586875 -180.49960937 51.2675 -179.45703125 51.96875 C-177.40264217 53.35074524 -175.3506445 54.73630061 -173.30078125 56.125 C-172.30175781 56.7953125 -171.30273438 57.465625 -170.2734375 58.15625 C-169.38962402 58.75244141 -168.50581055 59.34863281 -167.59521484 59.96289062 C-164.01880067 62.18891457 -164.01880067 62.18891457 -160.0625 63.5 C-157.46342716 62.54220454 -155.36473394 61.56272649 -152.98046875 60.21484375 C-152.29750229 59.84753143 -151.61453583 59.48021912 -150.91087341 59.10177612 C-148.68092617 57.89723953 -146.46581725 56.66780581 -144.25 55.4375 C-142.71426947 54.60147075 -141.17764113 53.76708867 -139.64013672 52.93432617 C-136.55574047 51.26029282 -133.47697919 49.57656796 -130.40283203 47.88378906 C-126.58195972 45.78113976 -122.74641608 43.70837143 -118.90234375 41.6484375 C-110.08519569 36.92032351 -101.33647441 32.12858162 -92.734375 27.01953125 C-89.76897766 25.3330699 -86.74873141 23.81796474 -83.6875 22.3125 C-77.60116376 19.31604718 -71.63706605 16.13412182 -65.6875 12.875 C-64.76517578 12.370896 -63.84285156 11.86679199 -62.89257812 11.34741211 C-57.78332378 8.55083646 -52.68502685 5.73541462 -47.59375 2.90625 C-45.45840898 1.72902945 -43.3229941 0.55194284 -41.1875 -0.625 C-39.69984131 -1.4595874 -39.69984131 -1.4595874 -38.18212891 -2.31103516 C-23.31325656 -10.47737197 -14.37316061 -8.43951115 0 0 Z " fill="#1951D2" transform="translate(653.0625,261.5)"/>
<path d="M0 0 C6.2501411 3.86083845 12.39294765 7.85928244 18.48876953 11.95922852 C20.59676557 13.37080166 22.70484248 14.78225404 24.81298828 16.19360352 C25.93848608 16.94814661 27.06397415 17.70270421 28.18945312 18.45727539 C33.90885493 22.28977573 39.63999664 26.10469507 45.36950684 29.92205811 C49.02622012 32.35859607 52.6821195 34.79635496 56.33815002 37.23391724 C59.40198349 39.27657755 62.46604793 41.31888992 65.53051758 43.3605957 C71.46279605 47.31345837 77.39246365 51.27002697 83.31298828 55.24047852 C84.32941406 55.92110352 85.34583984 56.60172852 86.39306641 57.30297852 C88.45931558 58.68668691 90.5243732 60.07217588 92.58837891 61.45922852 C93.590625 62.12954102 94.59287109 62.79985352 95.62548828 63.49047852 C96.51453857 64.08666992 97.40358887 64.68286133 98.31958008 65.29711914 C100.62620799 66.83726372 100.62620799 66.83726372 102.80834961 67.79321289 C105.23709319 69.10295902 106.80594793 70.87405348 108.73876953 72.83422852 C110.2308319 73.8904262 111.75698092 74.89967016 113.30908203 75.86547852 C114.19635986 76.42259521 115.0836377 76.97971191 115.99780273 77.55371094 C116.94357178 78.14128174 117.88934082 78.72885254 118.86376953 79.33422852 C125.98700636 83.81030467 133.06866537 88.32895993 140.05126953 93.02172852 C151.26126372 100.54198239 162.60132436 107.84855936 173.99975586 115.07958984 C181.54233741 119.86515241 189.06734444 124.66378415 196.47875977 129.65039062 C204.64732688 135.13749618 212.89875155 140.49985016 221.13549805 145.88378906 C243.24654408 160.34200306 243.24654408 160.34200306 244.73876953 161.83422852 C244.83562271 163.92250173 244.86063835 166.01411213 244.85902405 168.10462952 C244.86030569 169.09821438 244.86030569 169.09821438 244.86161321 170.11187166 C244.86326986 172.34755721 244.85774367 174.58316893 244.85229492 176.81884766 C244.85201306 178.41503396 244.85217076 180.01122039 244.85273743 181.60740662 C244.85302546 185.95432746 244.84712788 190.30122096 244.84016347 194.64813542 C244.83393081 199.18586798 244.8333262 203.7236011 244.83213806 208.26133728 C244.82902449 216.86030691 244.82081075 225.4592639 244.81078857 234.05822796 C244.79962825 243.8452458 244.79411719 253.63226423 244.78909314 263.41928685 C244.77862815 283.55760781 244.76102821 303.69591737 244.73876953 323.83422852 C243.00521393 322.89603576 241.27256283 321.95617162 239.5402832 321.015625 C238.57531418 320.49242172 237.61034515 319.96921844 236.61613464 319.43016052 C232.33923999 317.05797875 228.1945835 314.49314533 224.05126953 311.89672852 C223.15972168 311.34170654 222.26817383 310.78668457 221.34960938 310.21484375 C216.51172991 307.20070485 211.68246102 304.17281733 206.85205078 301.14672852 C204.85603408 299.89660549 202.85993983 298.64660627 200.86376953 297.39672852 C199.86861328 296.7734668 198.87345703 296.15020508 197.84814453 295.50805664 C187.9953228 289.34845389 178.06764204 283.31440407 168.1328125 277.28833008 C162.98589595 274.16217925 157.86088053 271.00083924 152.73876953 267.83422852 C152.01641113 267.38821289 151.29405273 266.94219727 150.54980469 266.48266602 C141.30780465 260.775745 132.07741756 255.05118679 122.87353516 249.28295898 C113.92731302 243.6763308 104.95529271 238.11913924 95.92626953 232.64672852 C87.44930567 227.50752898 79.04195011 222.27108427 70.67236328 216.95922852 C65.08468338 213.41409909 59.47555653 209.90353769 53.86376953 206.39672852 C52.85040527 205.76347656 51.83704102 205.13022461 50.79296875 204.4777832 C44.18135944 200.35014591 37.55722693 196.24319213 30.92626953 192.14672852 C21.93673249 186.59198454 12.99406608 180.96593921 4.06835938 175.30932617 C1.74778214 173.83993531 -0.57470732 172.37362088 -2.89794922 170.90844727 C-11.36424899 165.56891601 -19.81871043 160.21128784 -28.26123047 154.83422852 C-43.25438771 145.28697542 -58.2865418 135.804996 -73.3671875 126.39648438 C-78.68573039 123.07652437 -83.99312739 119.74059921 -89.28320312 116.37548828 C-98.0878686 110.77874662 -106.97213899 105.31684719 -115.88623047 99.89672852 C-116.48600708 99.53138 -117.08578369 99.16603149 -117.70373535 98.78961182 C-124.48046885 94.66441087 -131.28112471 90.60858026 -138.26123047 86.83422852 C-121.47043726 99.47943278 -104.55460569 111.94504903 -87.49511719 124.2253418 C-83.74763258 126.92434984 -80.00469326 129.62964668 -76.26123047 132.33422852 C-74.76645166 133.4136734 -73.27165998 134.49310047 -71.77685547 135.57250977 C-68.7240493 137.77724055 -65.67205868 139.98309435 -62.62060547 142.18969727 C-55.84582305 147.08768186 -49.06864945 151.9816694 -42.26123047 156.83422852 C-36.23910971 161.12700043 -30.23877505 165.44945426 -24.24731445 169.78491211 C-20.24413432 172.68162984 -16.2360248 175.57104227 -12.21826172 178.44750977 C-11.39874023 179.03556396 -10.57921875 179.62361816 -9.73486328 180.22949219 C-8.16157388 181.35816325 -6.58677088 182.4847283 -5.01025391 183.60888672 C-4.30030273 184.11895264 -3.59035156 184.62901855 -2.85888672 185.15454102 C-2.23506104 185.60071777 -1.61123535 186.04689453 -0.96850586 186.5065918 C-0.40510498 186.94471191 0.1582959 187.38283203 0.73876953 187.83422852 C1.26154134 188.22702153 1.78431314 188.61981455 2.32292652 189.02451038 C4.40949822 191.69154804 4.10762214 193.7603972 4.09953308 197.11735535 C4.10571907 199.09245338 4.10571907 199.09245338 4.11203003 201.10745239 C4.10141249 202.57000936 4.09050805 204.03256427 4.0793457 205.49511719 C4.07849965 207.03248579 4.07897415 208.56985561 4.08067322 210.10722351 C4.08153544 214.28470436 4.06387307 218.46192782 4.04295135 222.63934875 C4.02422231 227.00355592 4.02243709 231.36776872 4.01887512 235.73200989 C4.00954354 243.99805378 3.98491474 252.26397892 3.95482665 260.52997047 C3.92131723 269.93975962 3.90480534 279.34955438 3.88974035 288.75938833 C3.85836613 308.11773577 3.80558404 327.4759726 3.73876953 346.83422852 C4.51957382 347.14049667 5.30037811 347.44676483 6.10484314 347.76231384 C8.58128227 348.77013678 10.75953833 349.91238247 13.05517578 351.27563477 C13.88718506 351.76797607 14.71919434 352.26031738 15.57641602 352.76757812 C16.47561768 353.30519775 17.37481934 353.84281738 18.30126953 354.39672852 C19.25654541 354.96464111 20.21182129 355.53255371 21.19604492 356.11767578 C33.76071844 363.60620109 46.24822472 371.22300131 58.73876953 378.83422852 C61.64746232 380.60508298 64.55638339 382.37556194 67.46533203 384.14599609 C69.31057275 385.26922141 71.15562565 386.39275535 73.00048828 387.51660156 C78.88341668 391.09971873 84.77180038 394.67370289 90.66340637 398.24252319 C95.9824173 401.46513682 101.2960787 404.69647617 106.60791016 407.9309082 C109.41354758 409.63651873 112.22411123 411.33367822 115.03564453 413.02954102 C116.49957529 413.92213235 117.96315412 414.81530131 119.42626953 415.70922852 C120.07329834 416.095625 120.72032715 416.48202148 121.38696289 416.88012695 C125.6244585 419.49129543 125.6244585 419.49129543 126.73876953 422.83422852 C122.01119462 425.35805559 117.28190066 427.87863594 112.55126953 430.39672852 C111.83304016 430.77904633 111.11481079 431.16136414 110.37481689 431.55526733 C100.15727118 436.99059346 89.90620805 442.35474442 79.61376953 447.64672852 C71.47077519 451.83368636 63.37615182 456.08881714 55.36376953 460.52172852 C45.64313947 465.87522884 35.82162252 471.03387277 25.96820068 476.1378479 C24.20204581 477.05431232 22.43773091 477.9743321 20.675354 478.89804077 C18.18213331 480.20344317 15.68220522 481.49502611 13.18017578 482.78344727 C12.0595298 483.3747644 12.0595298 483.3747644 10.91624451 483.97802734 C4.53833459 487.22995955 -1.01517188 488.66692958 -8.12695312 486.61450195 C-12.26007799 485.10346706 -16.0841049 483.04926995 -19.94873047 480.95922852 C-20.86372314 480.47236572 -21.77871582 479.98550293 -22.72143555 479.48388672 C-29.90129783 475.63614917 -36.97315759 471.60901003 -44.02490234 467.5324707 C-51.09635158 463.45841699 -58.25487159 459.56244895 -65.44873047 455.70922852 C-75.77435978 450.1781226 -86.04322034 444.56125838 -96.26123047 438.83422852 C-98.18826096 437.75600907 -100.11534788 436.67789048 -102.04248047 435.59985352 C-105.19532411 433.83589827 -108.34754248 432.07086471 -111.49804688 430.30273438 C-117.01132866 427.20880247 -122.53146589 424.12843465 -128.06591797 421.07250977 C-129.73255493 420.14873535 -129.73255493 420.14873535 -131.43286133 419.20629883 C-133.54059038 418.038437 -135.65062178 416.87471626 -137.76342773 415.71606445 C-156.10814688 405.52845828 -156.10814688 405.52845828 -159.26123047 398.83422852 C-160.51517253 392.45551952 -160.40657601 386.10087156 -160.40167236 379.61915588 C-160.40464349 378.38967018 -160.40761461 377.16018447 -160.41067576 375.89344162 C-160.41783388 372.49281273 -160.42053334 369.09223439 -160.42127323 365.69160163 C-160.42312989 362.01941166 -160.43068008 358.3472325 -160.43740845 354.67504883 C-160.45096515 346.65245628 -160.45701179 338.62986875 -160.46141911 330.60726666 C-160.46418496 325.59644735 -160.46842283 320.58562995 -160.47292328 315.57481194 C-160.48511042 301.69561796 -160.49541216 287.81642551 -160.49879837 273.9372263 C-160.49901794 273.04973365 -160.4992375 272.16224101 -160.49946372 271.24785465 C-160.499682 270.35827568 -160.49990028 269.46869671 -160.50012517 268.5521608 C-160.50056863 266.74961762 -160.5010152 264.94707443 -160.50146484 263.14453125 C-160.50168627 262.2504132 -160.5019077 261.35629515 -160.50213584 260.43508261 C-160.50608585 245.93972337 -160.52354855 231.44441435 -160.54682437 216.94907451 C-160.57053958 202.05976888 -160.58300023 187.17048846 -160.58416629 172.28116363 C-160.58508273 163.92410954 -160.59082776 155.56712095 -160.6089859 147.21008492 C-160.62438888 140.09621252 -160.62950604 132.9824259 -160.6212478 125.86854 C-160.61734254 122.24018318 -160.61826484 118.61199909 -160.63230515 114.98366356 C-160.64739617 111.04779619 -160.63917425 107.11217159 -160.62872314 103.17628479 C-160.63677955 102.03318692 -160.64483595 100.89008906 -160.65313649 99.71235186 C-160.61021542 92.80760471 -160.19324711 86.62241956 -155.80395508 80.95141602 C-150.78411166 76.99954176 -145.4266961 73.8898709 -139.82373047 70.83422852 C-137.75778356 69.68730774 -135.69270579 68.53882024 -133.62841797 67.38891602 C-132.57235352 66.80207031 -131.51628906 66.21522461 -130.42822266 65.6105957 C-125.39837098 62.78934988 -120.42305965 59.87693528 -115.44873047 56.95922852 C-106.88607777 51.94359878 -98.30073108 46.96956803 -89.69873047 42.02172852 C-83.02067089 38.17809431 -76.34979044 34.32967372 -69.76123047 30.33422852 C-61.90439983 25.57877839 -53.94048114 21.01201495 -45.9765625 16.4387207 C-40.99434803 13.57537905 -36.01875731 10.70574029 -31.08935547 7.75219727 C-30.32606934 7.29578857 -29.5627832 6.83937988 -28.77636719 6.36914062 C-27.40999852 5.54878946 -26.04670045 4.72328725 -24.6875 3.89111328 C-16.76124228 -0.86274864 -8.88335114 -4.57978857 0 0 Z " fill="#4AADFE" transform="translate(387.26123046875,256.165771484375)"/>
<path d="M0 0 C6.2501411 3.86083845 12.39294765 7.85928244 18.48876953 11.95922852 C20.59676557 13.37080166 22.70484248 14.78225404 24.81298828 16.19360352 C25.93848608 16.94814661 27.06397415 17.70270421 28.18945312 18.45727539 C33.90885493 22.28977573 39.63999664 26.10469507 45.36950684 29.92205811 C49.02622012 32.35859607 52.6821195 34.79635496 56.33815002 37.23391724 C59.40198349 39.27657755 62.46604793 41.31888992 65.53051758 43.3605957 C71.46279605 47.31345837 77.39246365 51.27002697 83.31298828 55.24047852 C84.32941406 55.92110352 85.34583984 56.60172852 86.39306641 57.30297852 C88.45931558 58.68668691 90.5243732 60.07217588 92.58837891 61.45922852 C93.590625 62.12954102 94.59287109 62.79985352 95.62548828 63.49047852 C96.51453857 64.08666992 97.40358887 64.68286133 98.31958008 65.29711914 C100.62620799 66.83726372 100.62620799 66.83726372 102.80834961 67.79321289 C105.23709319 69.10295902 106.80594793 70.87405348 108.73876953 72.83422852 C110.2308319 73.8904262 111.75698092 74.89967016 113.30908203 75.86547852 C114.19635986 76.42259521 115.0836377 76.97971191 115.99780273 77.55371094 C116.94357178 78.14128174 117.88934082 78.72885254 118.86376953 79.33422852 C125.98700636 83.81030467 133.06866537 88.32895993 140.05126953 93.02172852 C151.26126372 100.54198239 162.60132436 107.84855936 173.99975586 115.07958984 C181.54233741 119.86515241 189.06734444 124.66378415 196.47875977 129.65039062 C204.64732688 135.13749618 212.89875155 140.49985016 221.13549805 145.88378906 C243.24654408 160.34200306 243.24654408 160.34200306 244.73876953 161.83422852 C244.83562271 163.92250173 244.86063835 166.01411213 244.85902405 168.10462952 C244.86030569 169.09821438 244.86030569 169.09821438 244.86161321 170.11187166 C244.86326986 172.34755721 244.85774367 174.58316893 244.85229492 176.81884766 C244.85201306 178.41503396 244.85217076 180.01122039 244.85273743 181.60740662 C244.85302546 185.95432746 244.84712788 190.30122096 244.84016347 194.64813542 C244.83393081 199.18586798 244.8333262 203.7236011 244.83213806 208.26133728 C244.82902449 216.86030691 244.82081075 225.4592639 244.81078857 234.05822796 C244.79962825 243.8452458 244.79411719 253.63226423 244.78909314 263.41928685 C244.77862815 283.55760781 244.76102821 303.69591737 244.73876953 323.83422852 C243.00521393 322.89603576 241.27256283 321.95617162 239.5402832 321.015625 C238.57531418 320.49242172 237.61034515 319.96921844 236.61613464 319.43016052 C232.33923999 317.05797875 228.1945835 314.49314533 224.05126953 311.89672852 C223.15972168 311.34170654 222.26817383 310.78668457 221.34960938 310.21484375 C216.51172991 307.20070485 211.68246102 304.17281733 206.85205078 301.14672852 C204.85603408 299.89660549 202.85993983 298.64660627 200.86376953 297.39672852 C199.86861328 296.7734668 198.87345703 296.15020508 197.84814453 295.50805664 C187.9953228 289.34845389 178.06764204 283.31440407 168.1328125 277.28833008 C162.98589595 274.16217925 157.86088053 271.00083924 152.73876953 267.83422852 C152.01641113 267.38821289 151.29405273 266.94219727 150.54980469 266.48266602 C141.30780465 260.775745 132.07741756 255.05118679 122.87353516 249.28295898 C113.92731302 243.6763308 104.95529271 238.11913924 95.92626953 232.64672852 C87.44930567 227.50752898 79.04195011 222.27108427 70.67236328 216.95922852 C65.08468338 213.41409909 59.47555653 209.90353769 53.86376953 206.39672852 C52.85040527 205.76347656 51.83704102 205.13022461 50.79296875 204.4777832 C44.18135944 200.35014591 37.55722693 196.24319213 30.92626953 192.14672852 C21.93673249 186.59198454 12.99406608 180.96593921 4.06835938 175.30932617 C1.74778214 173.83993531 -0.57470732 172.37362088 -2.89794922 170.90844727 C-11.36424899 165.56891601 -19.81871043 160.21128784 -28.26123047 154.83422852 C-43.25438771 145.28697542 -58.2865418 135.804996 -73.3671875 126.39648438 C-78.68578859 123.07648804 -83.9931496 119.7403763 -89.28344727 116.37548828 C-99.29368976 110.01171659 -109.41807482 103.84385427 -119.56884766 97.70776367 C-120.14591461 97.3588356 -120.72298157 97.00990753 -121.3175354 96.65040588 C-122.97716687 95.64706284 -124.63701783 94.6440829 -126.296875 93.64111328 C-128.83427234 92.09447536 -131.35053009 90.52103033 -133.85888672 88.92797852 C-136.3339668 87.40485231 -138.36646108 86.32119073 -141.01123047 85.27172852 C-144.28041355 83.82574369 -145.8206623 82.35895421 -148.26123047 79.83422852 C-150.32290613 79.20005304 -150.32290613 79.20005304 -152.26123047 78.83422852 C-145.71439648 74.28543362 -138.93130087 70.2620564 -131.99075317 66.34573364 C-128.8761285 64.58768737 -125.76833223 62.8176296 -122.65966797 61.04907227 C-122.03107376 60.6917955 -121.40247955 60.33451874 -120.75483704 59.96641541 C-114.92193761 56.64838112 -109.11736242 53.28285989 -103.32373047 49.89672852 C-102.36184814 49.3346167 -101.39996582 48.77250488 -100.40893555 48.19335938 C-95.01418835 45.03720343 -89.62385943 41.8735287 -84.23388672 38.70922852 C-81.78474458 37.27159795 -79.33550463 35.83413414 -76.88623047 34.39672852 C-76.27848785 34.03998047 -75.67074524 33.68323242 -75.04458618 33.31567383 C-65.14589289 27.5065391 -55.21852026 21.74943372 -45.26611328 16.03271484 C-40.53898043 13.31494448 -35.82165133 10.58576495 -31.14404297 7.78344727 C-29.98727051 7.09206665 -29.98727051 7.09206665 -28.80712891 6.38671875 C-27.42926422 5.56003093 -26.05451365 4.72811248 -24.68408203 3.88916016 C-16.75907313 -0.86437057 -8.88169346 -4.57893395 0 0 Z " fill="#2F8BF6" transform="translate(387.26123046875,256.165771484375)"/>
<path d="M0 0 C3.70769419 1.44125197 6.97564893 3.079928 10.3671875 5.16796875 C11.40593018 5.80629639 12.44467285 6.44462402 13.51489258 7.10229492 C14.62372803 7.7904126 15.73256348 8.47853027 16.875 9.1875 C17.44801849 9.54147858 18.02103699 9.89545715 18.61141968 10.26016235 C27.71992184 15.88702714 36.71258658 21.67756549 45.65917969 27.55883789 C54.46805319 33.33918471 63.40962934 38.88897358 72.38964844 44.3984375 C83.89473481 51.45730082 95.37821457 58.53874224 106.68847656 65.90673828 C111.92951874 69.31873341 117.2068575 72.66947737 122.5 76 C128.52660829 79.79328985 134.52882551 83.62002874 140.5 87.5 C147.15956209 91.82573023 153.85763858 96.08660216 160.57788086 100.31738281 C164.78694168 102.96808041 168.98952007 105.62810749 173.1796875 108.30859375 C184.15755445 115.3294044 195.20439394 122.22332563 206.31542969 129.03149414 C214.27008591 133.91372638 222.15826783 138.89148583 230.02124023 143.91967773 C238.76083118 149.50235499 247.57593386 154.95905166 256.40429688 160.39990234 C275.45718703 172.14488373 294.47247181 183.9517787 313.375 195.9375 C322.25995124 201.57107767 331.22178519 207.07834049 340.19482422 212.57006836 C341.7786792 213.54085327 341.7786792 213.54085327 343.39453125 214.53125 C344.38146973 215.13582031 345.3684082 215.74039063 346.38525391 216.36328125 C348.4924073 217.68226877 350.53956264 219.04267686 352.57421875 220.46875 C354.94470116 222.26689402 354.94470116 222.26689402 358 222 C359.5159375 221.2265625 359.5159375 221.2265625 361.0625 220.4375 C362.031875 219.963125 363.00125 219.48875 364 219 C364.66 219.33 365.32 219.66 366 220 C354.54534839 226.34507523 343.05339792 232.55826145 331.31323242 238.36010742 C325.07607732 241.44651574 318.9092028 244.64784154 312.76123047 247.90771484 C304.90045193 252.06986567 296.9908314 256.13640319 289.08126831 260.20477295 C282.21866302 263.73730609 275.38239904 267.30925604 268.60546875 271.00390625 C268.01295822 271.32634308 267.42044769 271.64877991 266.8099823 271.98098755 C263.99656815 273.51361339 261.18829941 275.05466883 258.38647461 276.60839844 C250.16594447 281.10783429 243.41379356 284.44200223 234 282 C224.77504021 277.91009847 216.06621315 272.83296731 207.4375 267.625 C205.67723555 266.57047998 203.9158457 265.51785781 202.15434265 264.46540833 C200.9389464 263.73920573 199.72387009 263.01246742 198.5091095 262.28520203 C192.48910973 258.68425934 186.43048516 255.15064053 180.37063599 251.61734009 C166.54774042 243.55326499 152.83868749 235.31054991 139.19140625 226.95263672 C137.0148855 225.62094968 134.8350472 224.29467341 132.65234375 222.97314453 C126.74312122 219.37836749 121.01174285 215.65019793 115.37792969 211.63964844 C111.423339 208.91284853 107.28127891 206.52830647 103.125 204.125 C94.3884343 199.01678429 85.70770302 193.82328042 77.0625 188.5625 C76.47226044 188.20351624 75.88202087 187.84453247 75.27389526 187.47467041 C71.74550289 185.32847213 68.21829243 183.18034021 64.69177246 181.03106689 C60.02426975 178.18641276 55.35591034 175.34316427 50.6875 172.5 C49.73609131 171.92056641 48.78468262 171.34113281 47.80444336 170.74414062 C41.14472497 166.68622981 41.14472497 166.68622981 34.45968723 162.67026424 C32.75625991 161.64175331 31.07479306 160.57710867 29.39549255 159.50965881 C26.00397839 157.45506246 22.53201321 155.93738044 18.87245178 154.41673279 C2.10193573 146.86102864 2.10193573 146.86102864 -1.40434647 138.75224686 C-3.38760219 129.86453448 -2.95875979 120.84262505 -2.53484845 111.80515981 C-2.37706309 107.86652284 -2.36377105 103.92725577 -2.33421326 99.98594666 C-2.25691473 92.54461941 -2.05243373 85.11262541 -1.80047601 77.67538589 C-1.51967353 69.20010634 -1.38326318 60.7243465 -1.25809014 52.24556363 C-0.99771723 34.82500161 -0.55889849 17.41349105 0 0 Z " fill="#0B36A2" transform="translate(391,461)"/>
<path d="M0 0 C3.95601781 1.45040359 7.38928923 3.32969772 10.98046875 5.52734375 C11.54593918 5.87190613 12.11140961 6.21646851 12.6940155 6.57147217 C14.52743383 7.68983464 16.35750444 8.81354718 18.1875 9.9375 C19.46220658 10.71687301 20.73711038 11.49592354 22.01220703 12.2746582 C24.53485708 13.81597616 27.05625536 15.35931039 29.57666016 16.90429688 C32.4043859 18.63687049 35.23742673 20.36042364 38.07421875 22.078125 C48.92391161 28.65427911 59.6232594 35.45753194 70.31445312 42.28759766 C74.43099206 44.91245258 78.55837666 47.52000075 82.6875 50.125 C83.45956787 50.61218506 84.23163574 51.09937012 85.02709961 51.60131836 C86.57577765 52.57839666 88.12452409 53.55536657 89.67333984 54.53222656 C93.61660245 57.01983357 97.55820768 59.51006414 101.5 62 C103.0833256 63.00001224 104.66665893 64.00001225 106.25 65 C115.75 71 115.75 71 118.1237793 72.49926758 C119.71113526 73.50178243 121.29853779 74.50422354 122.88598633 75.5065918 C126.78315395 77.96751963 130.67957101 80.42961712 134.57421875 82.89453125 C146.32474046 90.3287388 158.11087712 97.70507126 169.90625 105.06787109 C172.98018935 106.98762772 176.05281876 108.90946258 179.125 110.83203125 C189.54064395 117.34912895 199.9691029 123.84414911 210.4230957 130.29956055 C216.09764013 133.80852782 221.74269486 137.36121712 227.375 140.9375 C235.40664285 146.03414575 243.51889121 150.99106545 251.65258789 155.92285156 C257.87455786 159.69780297 264.0641229 163.51871719 270.2265625 167.38989258 C275.02493457 170.40055149 279.85033754 173.3646156 284.6875 176.3125 C292.01453399 180.77826138 299.31634628 185.28333665 306.60888672 189.80517578 C313.83314945 194.28272047 321.0716092 198.73690706 328.3125 203.1875 C339.41100522 210.01258614 350.4933716 216.86052557 361.48828125 223.8515625 C370.38556294 229.50409404 379.33764926 235.03894017 388.39111328 240.43798828 C394.33647169 243.98822642 400.24172306 247.59786804 406.125 251.25 C407.42256226 252.05497925 407.42256226 252.05497925 408.74633789 252.8762207 C410.55448238 253.99834117 412.36250361 255.12066027 414.17041016 256.24316406 C433.09657764 267.99404424 452.14760629 279.50143947 471.32861328 290.83007812 C474.61656721 292.77237265 477.90067966 294.72107164 481.18359375 296.671875 C490.99579413 302.4972306 500.84787318 308.24317609 510.77612305 313.86889648 C513.18874717 315.23793508 515.59456797 316.61837154 518 318 C518.92232422 318.51965332 519.84464844 319.03930664 520.79492188 319.57470703 C521.70306641 320.09790527 522.61121094 320.62110352 523.546875 321.16015625 C524.37541992 321.63203369 525.20396484 322.10391113 526.05761719 322.59008789 C528 324 528 324 529 327 C528.48203857 327.27150879 527.96407715 327.54301758 527.43041992 327.82275391 C525.88695679 328.63225416 524.3437675 329.44227667 522.80078125 330.25268555 C521.05526353 331.16931065 519.3091669 332.08483417 517.5625 332.99926758 C513.81376458 334.96714354 510.07104386 336.93475141 506.39453125 339.03515625 C504.96173828 339.85306641 504.96173828 339.85306641 503.5 340.6875 C502.6853125 341.16574219 501.870625 341.64398437 501.03125 342.13671875 C499 343 499 343 496 342 C496.33 341.67 496.66 341.34 497 341 C496.50935059 340.7097998 496.01870117 340.41959961 495.51318359 340.12060547 C484.72485436 333.72632213 474.0526369 327.17953188 463.48876953 320.42089844 C447.34435917 310.09320347 431.04674881 300.01332282 414.71630859 289.9831543 C404.43280709 283.66246204 394.19624805 277.26812378 383.96777344 270.85888672 C379.98157167 268.36209993 375.99283275 265.86938379 372.00390625 263.37695312 C369.0049159 261.50307164 366.00636412 259.62848969 363.0078125 257.75390625 C358.98330198 255.23842336 354.95710541 252.7256689 350.9296875 250.21484375 C339.33270914 242.98178753 327.77264124 235.69463415 316.25 228.34375 C311.2402318 225.14900828 306.21519524 221.97892425 301.1875 218.8125 C294.56004638 214.63609884 287.97126968 210.40419215 281.40185547 206.13720703 C275.44269958 202.27251714 269.44335393 198.47382778 263.43310547 194.68920898 C258.24391357 191.42071919 253.06757744 188.13286982 247.8984375 184.83276367 C239.73736292 179.62361298 231.55175851 174.45969055 223.3125 169.375 C210.61271322 161.53537828 197.97054389 153.62097111 185.49584961 145.42675781 C175.57688866 138.91153186 165.56460895 132.62337581 155.34765625 126.5859375 C154.62674805 126.15144287 153.90583984 125.71694824 153.16308594 125.26928711 C151.68918744 124.40441146 150.19043647 123.58086488 148.67285156 122.79516602 C146.5779941 121.65564296 144.76583076 120.60355895 143 119 C142.3515625 115.73046875 142.3515625 115.73046875 142.625 112.1875 C142.59361119 107.1249859 142.59361119 107.1249859 140.37109375 102.765625 C137.68609296 100.63943148 134.89315816 98.83493384 132 97 C129.84192384 95.46256075 127.70765126 93.89485956 125.57202148 92.32641602 C121.73863358 89.5175757 117.8674151 86.76170008 114 84 C113.37544922 83.55366211 112.75089844 83.10732422 112.10742188 82.64746094 C109.84875272 81.03358504 107.58967696 79.420287 105.32910156 77.80908203 C99.75871163 73.83638847 94.21598368 69.82565263 88.671875 65.81640625 C84.12477837 62.5298143 79.56900832 59.2560519 75 56 C67.41165523 50.59093437 59.86115934 45.12982531 52.31005859 39.66894531 C50.04819171 38.03481701 47.78423692 36.4036287 45.51953125 34.7734375 C9.56167454 8.87936914 9.56167454 8.87936914 0 1 C0 0.67 0 0.34 0 0 Z " fill="#1A54D6" transform="translate(248,342)"/>
<path d="M0 0 C1.10053711 0.63147949 2.20107422 1.26295898 3.33496094 1.91357422 C6.54488001 3.76061476 9.74302982 5.62639523 12.9375 7.5 C13.7526709 7.97598633 14.5678418 8.45197266 15.40771484 8.94238281 C18.8584385 10.95869101 22.30094649 12.98830984 25.73828125 15.02734375 C30.4220079 17.79748125 35.14697715 20.49386848 39.875 23.1875 C57.30090677 33.11938066 74.67649842 43.13972617 91.9855957 53.27392578 C97.23439765 56.34663001 102.49468192 59.39695825 107.7734375 62.41796875 C108.88831543 63.05919678 110.00319336 63.7004248 111.15185547 64.36108398 C113.30629398 65.59967001 115.46407233 66.83246856 117.62548828 68.05883789 C118.58438965 68.61176514 119.54329102 69.16469238 120.53125 69.734375 C121.38396484 70.22131836 122.23667969 70.70826172 123.11523438 71.20996094 C123.71658203 71.63567383 124.31792969 72.06138672 124.9375 72.5 C124.9375 73.16 124.9375 73.82 124.9375 74.5 C121.67760898 73.25448401 118.65459976 71.87315322 115.62890625 70.13671875 C114.81099609 69.66878906 113.99308594 69.20085937 113.15039062 68.71875 C111.83844727 67.96078125 111.83844727 67.96078125 110.5 67.1875 C109.57767578 66.65769531 108.65535156 66.12789063 107.70507812 65.58203125 C100.15903843 61.23502258 92.66349208 56.80436144 85.17431641 52.36035156 C75.49405037 46.62503761 65.719677 41.05905883 55.9375 35.5 C52.49882844 33.54371704 49.06135479 31.58534966 45.625 29.625 C44.76350342 29.13362549 43.90200684 28.64225098 43.0144043 28.13598633 C37.38577716 24.91851396 31.78155139 21.66148684 26.18823242 18.38305664 C16.59486373 12.76253366 6.97825804 7.18268865 -2.6875 1.6875 C-3.73647461 1.08244629 -4.78544922 0.47739258 -5.86621094 -0.14599609 C-7.34395996 -0.9805835 -7.34395996 -0.9805835 -8.8515625 -1.83203125 C-10.14634521 -2.57030151 -10.14634521 -2.57030151 -11.46728516 -3.32348633 C-14.51739731 -4.84051362 -14.51739731 -4.84051362 -20.0625 -5.5 C-20.0625 47.96 -20.0625 101.42 -20.0625 156.5 C-24.17943245 154.85322702 -27.07487529 153.307169 -30.68359375 150.859375 C-31.77317383 150.12525391 -32.86275391 149.39113281 -33.98535156 148.63476562 C-34.55838013 148.24587158 -35.13140869 147.85697754 -35.72180176 147.45629883 C-38.74874962 145.40286993 -41.78623978 143.365185 -44.82421875 141.328125 C-45.43649323 140.91731689 -46.0487677 140.50650879 -46.67959595 140.08325195 C-52.33396304 136.29908666 -58.05893961 132.63146666 -63.8125 129 C-69.77676062 125.23376936 -75.71315151 121.4426191 -81.5625 117.5 C-87.28776147 113.64129622 -93.09773548 109.93277281 -98.9375 106.25 C-110.10607744 99.19805205 -121.08034687 91.86433718 -132.03857422 84.49121094 C-133.37709115 83.59281954 -134.71579379 82.69470477 -136.0546875 81.796875 C-136.70525116 81.35929871 -137.35581482 80.92172241 -138.02609253 80.47088623 C-141.51682157 78.13913506 -145.03945164 75.88455432 -148.62988281 73.70898438 C-149.37303741 73.25678528 -150.11619202 72.80458618 -150.88186646 72.33868408 C-152.31332532 71.47327337 -153.75056375 70.6173333 -155.19406128 69.77215576 C-156.86749584 68.76081727 -158.47332379 67.63916976 -160.0625 66.5 C-160.0625 65.51 -160.0625 64.52 -160.0625 63.5 C-159.15822266 63.02280518 -158.25394531 62.54561035 -157.32226562 62.05395508 C-124.7299532 45.07458235 -124.7299532 45.07458235 -92.734375 27.01953125 C-89.76897766 25.3330699 -86.74873141 23.81796474 -83.6875 22.3125 C-77.60116376 19.31604718 -71.63706605 16.13412182 -65.6875 12.875 C-64.76517578 12.370896 -63.84285156 11.86679199 -62.89257812 11.34741211 C-57.78332378 8.55083646 -52.68502685 5.73541462 -47.59375 2.90625 C-45.45840898 1.72902945 -43.3229941 0.55194284 -41.1875 -0.625 C-40.19572754 -1.1813916 -39.20395508 -1.7377832 -38.18212891 -2.31103516 C-23.31325656 -10.47737197 -14.37316061 -8.43951115 0 0 Z " fill="#0B36A2" transform="translate(653.0625,261.5)"/>
<path d="M0 0 C3.43955108 1.37582043 6.2010891 2.59139145 9.31640625 4.44140625 C10.14841553 4.93374756 10.9804248 5.42608887 11.83764648 5.93334961 C13.18644897 6.73977905 13.18644897 6.73977905 14.5625 7.5625 C15.51777588 8.1304126 16.47305176 8.6983252 17.45727539 9.28344727 C30.02194891 16.77197257 42.50945519 24.3887728 55 32 C57.90869279 33.77085447 60.81761386 35.54133343 63.7265625 37.31176758 C65.57180322 38.43499289 67.41685612 39.55852683 69.26171875 40.68237305 C75.14464715 44.26549021 81.03303085 47.83947438 86.92463684 51.40829468 C92.24364777 54.63090831 97.55730916 57.86224766 102.86914062 61.09667969 C105.67477805 62.80229021 108.48534169 64.4994497 111.296875 66.1953125 C112.76080576 67.08790383 114.22438459 67.98107279 115.6875 68.875 C116.33452881 69.26139648 116.98155762 69.64779297 117.64819336 70.04589844 C121.88568897 72.65706692 121.88568897 72.65706692 123 76 C118.27242509 78.52382707 113.54313113 81.04440742 108.8125 83.5625 C108.09427063 83.94481781 107.37604126 84.32713562 106.63604736 84.72103882 C96.41850102 90.15636528 86.16742084 95.52048072 75.875 100.8125 C67.69078305 105.02078132 59.5542829 109.29692953 51.5 113.75 C42.03760849 118.9682509 32.4668284 123.97226469 22.86621094 128.93029785 C21.16965757 129.80703965 19.47417218 130.68585127 17.77978516 131.56677246 C15.39413 132.80600213 13.00438987 134.0369578 10.61328125 135.265625 C9.88929642 135.6431189 9.16531158 136.02061279 8.41938782 136.4095459 C3.3435176 139 3.3435176 139 0 139 C0 93.13 0 47.26 0 0 Z " fill="#216CE6" transform="translate(391,603)"/>
<path d="M0 0 C5.21415455 1.59491786 8.94444785 4.89278009 13.125 8.25 C19.46222042 13.26032847 25.85462298 18.16776973 32.375 22.9375 C41.46025975 29.59169014 50.47460386 36.33623255 59.47509766 43.10449219 C62.00491974 45.00369337 64.53889926 46.89720778 67.07421875 48.7890625 C75.1307733 54.80543184 83.1462748 60.86232493 91.0625 67.0625 C98.72060741 73.0584807 106.51539691 78.84931332 114.36328125 84.59375 C119.52960721 88.37784293 124.64736895 92.22543352 129.75048828 96.09423828 C133.42185717 98.86513813 137.14731663 101.48661085 141 104 C140.01 104.495 140.01 104.495 139 105 C137.2578125 104.25 137.2578125 104.25 135.125 103 C134.31861084 102.53311768 133.51222168 102.06623535 132.68139648 101.58520508 C131.79653564 101.0620874 130.9116748 100.53896973 130 100 C128.0742611 98.87883351 126.14847788 97.75774313 124.22265625 96.63671875 C123.20445801 96.04036621 122.18625977 95.44401367 121.13720703 94.82958984 C118.03714288 93.02166138 114.9254715 91.23579354 111.80859375 89.45703125 C97.506417 81.28530663 83.38451213 72.84890388 69.33294678 64.25688171 C65.14316412 61.69542755 60.9466729 59.1452689 56.74609375 56.6015625 C3.129216 24.129216 3.129216 24.129216 0 21 C-0.08685603 19.43827255 -0.10702219 17.87270656 -0.09765625 16.30859375 C-0.09443359 15.36435547 -0.09121094 14.42011719 -0.08789062 13.44726562 C-0.07951172 12.45404297 -0.07113281 11.46082031 -0.0625 10.4375 C-0.05798828 9.44041016 -0.05347656 8.44332031 -0.04882812 7.41601562 C-0.03700007 4.94395151 -0.02051849 2.47200482 0 0 Z " fill="#062D95" transform="translate(632,559)"/>
<path d="M0 0 C5.63356791 1.57215849 9.36052028 3.65788612 12.75 8.5 C14.737099 12.474198 15.12544695 15.81610093 15.13142776 20.23872948 C15.13526891 21.30542913 15.13911005 22.37212878 15.1430676 23.47115266 C15.14220112 24.64214781 15.14133463 25.81314296 15.14044189 27.0196228 C15.14341302 28.26429058 15.14638414 29.50895835 15.1494453 30.79134333 C15.15662665 34.24821751 15.15930469 37.705042 15.16004276 41.16192007 C15.16189381 44.88933971 15.16944133 48.61674858 15.17617798 52.34416199 C15.18975887 60.494893 15.19578542 68.64561909 15.20018864 76.79635954 C15.20295103 81.88470406 15.20718834 86.97304668 15.21169281 92.06138992 C15.22388432 106.14720478 15.23418441 120.23301811 15.2375679 134.31883812 C15.23789725 135.67104548 15.23789725 135.67104548 15.23823325 137.05057017 C15.23856067 138.40602114 15.23856067 138.40602114 15.2388947 139.78885496 C15.23933817 141.61997883 15.23978473 143.45110269 15.24023438 145.28222656 C15.2404558 146.1905282 15.24067723 147.09882984 15.24090537 148.03465576 C15.24485481 162.75788493 15.26231379 177.48106464 15.2855939 192.2042747 C15.30929759 207.31721813 15.32176928 222.43013672 15.32293582 237.54309905 C15.32385304 246.02980151 15.32961742 254.51643951 15.34775543 263.00312424 C15.36314306 270.22838348 15.36828475 277.45355834 15.36001733 284.67883085 C15.35610628 288.36565068 15.35706248 292.05230051 15.37107468 295.7390995 C15.38612291 299.73499293 15.37796079 303.73050199 15.36749268 307.72640991 C15.37554908 308.89294361 15.38360548 310.05947732 15.39190602 311.26136053 C15.35211831 317.73329643 15.11639566 322.79011714 10.37231445 327.67651367 C4.60329926 331.80629656 -1.49612426 335.09623512 -7.8125 338.3125 C-8.84826172 338.84939453 -9.88402344 339.38628906 -10.95117188 339.93945312 C-18.52307478 343.84102493 -18.52307478 343.84102493 -22 345 C-22.33 344.34 -22.66 343.68 -23 343 C-22.01902344 342.5153125 -21.03804687 342.030625 -20.02734375 341.53125 C-15.6749489 339.37379183 -11.3351629 337.19185239 -7 335 C-6.28005859 334.63712891 -5.56011719 334.27425781 -4.81835938 333.90039062 C-2.76878167 332.86140802 -0.72722195 331.80817689 1.3125 330.75 C2.25331421 330.27530273 2.25331421 330.27530273 3.21313477 329.79101562 C6.71626586 327.95248609 8.95788498 326.39107349 11 323 C11.4491834 320.45852683 11.4491834 320.45852683 11.38311005 317.65194893 C11.39216669 316.56086551 11.40122333 315.46978209 11.41055441 314.34563553 C11.40522648 313.14740375 11.39989856 311.94917197 11.39440918 310.71463013 C11.40050028 309.44137749 11.40659139 308.16812485 11.41286707 306.85628879 C11.42929899 303.31955301 11.42694213 299.78303966 11.4214921 296.246279 C11.41882587 292.43294668 11.43334605 288.6196742 11.44558716 284.80636597 C11.46666089 277.33451375 11.47118089 269.86273911 11.46939927 262.39086069 C11.46809258 256.31834287 11.47189104 250.24584929 11.47932434 244.17333603 C11.4814235 242.42535269 11.4835211 240.67736936 11.48561716 238.92938602 C11.48718245 237.6244242 11.48718245 237.6244242 11.48877937 236.29309951 C11.5076897 219.83244838 11.50662916 203.37184179 11.49981004 186.9111843 C11.49423442 171.8484154 11.51505935 156.78581659 11.54817051 141.72308744 C11.58189373 126.2620875 11.59707752 110.80116906 11.59245348 95.34013164 C11.59020734 86.65777398 11.59547289 77.9755735 11.62034607 69.29324722 C11.64134161 61.90141388 11.64496872 54.50982389 11.62604648 47.11798061 C11.61687755 43.34600017 11.61578028 39.57447368 11.63640213 35.80252838 C11.6585053 31.71444289 11.64192272 27.62743085 11.62145996 23.53933716 C11.63397781 22.34556682 11.64649566 21.15179648 11.65939283 19.92185128 C11.6778985 13.12514939 11.6778985 13.12514939 8.57370758 7.30540276 C5.77836443 4.78539225 5.77836443 4.78539225 2.6875 2.6875 C1.800625 2.130625 0.91375 1.57375 0 1 C0 0.67 0 0.34 0 0 Z " fill="#1D47B6" transform="translate(779,336)"/>
<path d="M0 0 C5.50971928 1.53759608 9.27987343 3.56505709 12.62243587 8.29665583 C14.15459499 11.30337858 14.36846653 13.09027842 14.35352612 16.44100666 C14.35726074 18.07049337 14.35726074 18.07049337 14.36107081 19.73289901 C14.34844134 20.92063783 14.33581187 22.10837664 14.32279968 23.33210754 C14.3212794 24.59819735 14.31975913 25.86428715 14.31819278 27.16874331 C14.31357129 30.680681 14.29014276 34.19228036 14.26365387 37.70411193 C14.23837349 41.49202674 14.23051876 45.27998221 14.22055054 49.06796265 C14.20089558 55.63010823 14.17019367 62.19212762 14.13199425 68.75419044 C14.07678029 78.24182408 14.03821788 87.72946787 14.003723 97.21719678 C13.94730546 112.61027424 13.87741615 128.00325991 13.79907227 143.39624023 C13.72299601 158.34933991 13.65325362 173.302447 13.59204102 188.25561523 C13.58637827 189.63811726 13.58637827 189.63811726 13.58060112 191.04854862 C13.56170139 195.67227304 13.5429263 200.29599797 13.52421319 204.91972315 C13.36880083 243.27991173 13.19153243 281.63997576 13 320 C12.67 320 12.34 320 12 320 C11.99978263 319.3484437 11.99956526 318.6968874 11.99934131 318.02558696 C11.98582956 279.42102488 11.94636859 240.8165675 11.87314438 202.21207046 C11.86437748 197.57822961 11.8558277 192.94438838 11.84741211 188.31054688 C11.84573305 187.38802077 11.84405398 186.46549467 11.84232404 185.51501323 C11.81564407 170.57168506 11.80655825 155.62839525 11.80395857 140.6850457 C11.80090063 125.35521479 11.77897239 110.0254949 11.73947543 94.69571412 C11.71569397 85.23408002 11.70668457 75.77266746 11.71648689 66.31100757 C11.72179691 59.82543419 11.7088006 53.34005957 11.6813371 46.85454278 C11.66602742 43.11096303 11.65885815 39.36782804 11.67340279 35.62423515 C11.68895696 31.56654758 11.66599709 27.5099908 11.63923645 23.45236206 C11.64990971 22.26753609 11.66058297 21.08271011 11.67157966 19.86198032 C11.67346775 13.09867443 11.67346775 13.09867443 8.57259655 7.3108387 C5.77903689 4.78647494 5.77903689 4.78647494 2.6875 2.6875 C1.800625 2.130625 0.91375 1.57375 0 1 C0 0.67 0 0.34 0 0 Z " fill="#1145C6" transform="translate(779,336)"/>
<path d="M0 0 C8.44632845 1.00097704 14.79299266 4.23155203 22.0625 8.5 C23.16303711 9.13147949 24.26357422 9.76295898 25.39746094 10.41357422 C28.60738001 12.26061476 31.80552982 14.12639523 35 16 C35.8151709 16.47598633 36.6303418 16.95197266 37.47021484 17.44238281 C40.9209385 19.45869101 44.36344649 21.48830984 47.80078125 23.52734375 C52.4845079 26.29748125 57.20947715 28.99386848 61.9375 31.6875 C79.36340677 41.61938066 96.73899842 51.63972617 114.0480957 61.77392578 C119.29689765 64.84663001 124.55718192 67.89695825 129.8359375 70.91796875 C130.95081543 71.55919678 132.06569336 72.2004248 133.21435547 72.86108398 C135.36879398 74.09967001 137.52657233 75.33246856 139.68798828 76.55883789 C140.64688965 77.11176514 141.60579102 77.66469238 142.59375 78.234375 C143.44646484 78.72131836 144.29917969 79.20826172 145.17773438 79.70996094 C145.77908203 80.13567383 146.38042969 80.56138672 147 81 C147 81.66 147 82.32 147 83 C143.74010898 81.75448401 140.71709976 80.37315322 137.69140625 78.63671875 C136.87349609 78.16878906 136.05558594 77.70085937 135.21289062 77.21875 C133.90094727 76.46078125 133.90094727 76.46078125 132.5625 75.6875 C131.64017578 75.15769531 130.71785156 74.62789063 129.76757812 74.08203125 C122.22153843 69.73502258 114.72599208 65.30436144 107.23681641 60.86035156 C97.55655037 55.12503761 87.782177 49.55905883 78 44 C74.56132844 42.04371704 71.12385479 40.08534966 67.6875 38.125 C66.82600342 37.63362549 65.96450684 37.14225098 65.0769043 36.63598633 C59.44833783 33.41854864 53.84411836 30.16165233 48.25097656 26.88305664 C43.17473062 23.90924871 38.08876869 20.9523166 33 18 C31.88286621 17.35047363 30.76573242 16.70094727 29.61474609 16.03173828 C26.22952844 14.07081535 22.83502027 12.12701356 19.4375 10.1875 C18.3969043 9.58244629 17.35630859 8.97739258 16.28417969 8.35400391 C11.12188302 5.42892836 6.97724172 3.24311362 1 3 C0.67 2.01 0.34 1.02 0 0 Z " fill="#1641B6" transform="translate(631,253)"/>
<path d="M0 0 C0.33 0 0.66 0 1 0 C1 53.46 1 106.92 1 162 C-3.44607497 160.22157001 -4.9797308 159.35585467 -8 156 C-3.25 157.875 -3.25 157.875 -1 159 C-0.505 80.295 -0.505 80.295 0 0 Z " fill="#02258C" transform="translate(632,256)"/>
<path d="M0 0 C0 0.66 0 1.32 0 2 C-0.50635986 2.25056152 -1.01271973 2.50112305 -1.53442383 2.75927734 C-11.05129406 7.47546992 -20.54059116 12.23585269 -29.9375 17.1875 C-31.1119165 17.80467896 -31.1119165 17.80467896 -32.31005859 18.43432617 C-35.87901354 20.3181713 -39.42734166 22.22727241 -42.9375 24.21875 C-43.83287476 24.72112183 -43.83287476 24.72112183 -44.74633789 25.23364258 C-46.31458067 26.11817044 -47.87447282 27.01745953 -49.43359375 27.91796875 C-52.32380412 29.13652016 -53.11736003 28.88946754 -56 28 C-44.59259542 21.9624571 -33.15146045 15.99178692 -21.6875 10.0625 C-21.05317047 9.73426239 -20.41884094 9.40602478 -19.76528931 9.06784058 C-17.93104468 8.11890515 -16.0964563 7.17063823 -14.26171875 6.22265625 C-13.19912842 5.67359619 -12.13653809 5.12453613 -11.04174805 4.55883789 C-10.03797119 4.04442139 -9.03419434 3.53000488 -8 3 C-6.92210205 2.43853271 -5.8442041 1.87706543 -4.73364258 1.29858398 C-2 0 -2 0 0 0 Z " fill="#0D2B88" transform="translate(710,704)"/>
<path d="M0 0 C3.51319794 1.26793256 6.19954973 2.713142 9.109375 5.046875 C9.86476563 5.645 10.62015625 6.243125 11.3984375 6.859375 C12.17445313 7.48328125 12.95046875 8.1071875 13.75 8.75 C19.65733789 13.47587031 25.63563153 17.9045686 32 22 C31.34 22.33 30.68 22.66 30 23 C27.97216797 22.09130859 27.97216797 22.09130859 25.4921875 20.6484375 C24.58726562 20.12636719 23.68234375 19.60429688 22.75 19.06640625 C21.80125 18.50824219 20.8525 17.95007813 19.875 17.375 C18.94945312 16.84003906 18.02390625 16.30507813 17.0703125 15.75390625 C11.64623921 12.60518574 6.29928058 9.35413289 1 6 C1.66 5.67 2.32 5.34 3 5 C5.03144641 5.93446535 7.03533587 6.93224776 9 8 C8.3503125 7.50628906 7.700625 7.01257813 7.03125 6.50390625 C6.1959375 5.86324219 5.360625 5.22257813 4.5 4.5625 C3.6646875 3.92441406 2.829375 3.28632812 1.96875 2.62890625 C1.3190625 2.09136719 0.669375 1.55382812 0 1 C0 0.67 0 0.34 0 0 Z " fill="#03268B" transform="translate(741,641)"/>
<path d="M0 0 C6.17376088 1.72358939 11.14719385 4.94334279 16.546875 8.27929688 C25.75318592 13.91006281 25.75318592 13.91006281 36.25 14.75 C37.05953125 14.64171875 37.8690625 14.5334375 38.703125 14.421875 C40.83155839 14.03093825 42.90924801 13.55625512 45 13 C44.67 13.99 44.34 14.98 44 16 C38.52509444 18.28121065 33.72625746 18.57790206 28 17 C3.34174312 6.68348624 3.34174312 6.68348624 0 0 Z " fill="#0D2985" transform="translate(597,726)"/>
<path d="M0 0 C5.44748734 1.52022903 9.01625206 3.60810264 12.63989258 7.97729492 C14.67278987 12.49520936 14.26045895 16.66322496 14.07421875 21.55078125 C14.04777786 22.56472458 14.02133698 23.57866791 13.99409485 24.62333679 C13.90650429 27.85366838 13.79729306 31.08285428 13.6875 34.3125 C13.62422341 36.50581865 13.56235797 38.6991785 13.50195312 40.89257812 C13.35099136 46.26230387 13.18228577 51.63125126 13 57 C12.67 57 12.34 57 12 57 C11.99857498 56.43703217 11.99714996 55.87406433 11.99568176 55.29403687 C11.97595605 49.42095563 11.92162149 43.54890972 11.84741211 37.67626953 C11.82425177 35.48624099 11.80984103 33.29610138 11.80444336 31.10595703 C11.79513975 27.95274801 11.75411647 24.80128126 11.70703125 21.6484375 C11.7109639 20.67321136 11.71489655 19.69798523 11.71894836 18.69320679 C11.62267693 14.18180063 11.49185109 10.99974016 8.56835938 7.42358398 C6.64112636 5.60498682 4.9580779 4.01933768 2.6875 2.6875 C1.800625 2.130625 0.91375 1.57375 0 1 C0 0.67 0 0.34 0 0 Z " fill="#1247C6" transform="translate(779,336)"/>
<path d="M0 0 C0.52924072 0.22703613 1.05848145 0.45407227 1.60375977 0.68798828 C-2.86021771 3.0757415 -7.32599809 5.4600755 -11.79345703 7.84130859 C-13.31185693 8.65125136 -14.82976671 9.46211365 -16.34716797 10.27392578 C-18.53280381 11.44303679 -20.72020157 12.60879076 -22.90795898 13.77392578 C-23.58211349 14.13545746 -24.25626801 14.49698914 -24.95085144 14.86947632 C-28.36907245 16.68567085 -31.76659169 18.33869925 -35.39624023 19.68798828 C-30.42006689 14.31583143 -24.6549649 11.2322866 -18.27587891 7.84716797 C-16.32737996 6.80960146 -14.39214389 5.74982644 -12.45678711 4.68798828 C-11.21728838 4.02255369 -9.97707754 3.35844344 -8.73608398 2.69580078 C-7.61580811 2.09396973 -6.49553223 1.49213867 -5.34130859 0.87207031 C-2.39624023 -0.31201172 -2.39624023 -0.31201172 0 0 Z " fill="#0F3090" transform="translate(588.396240234375,275.31201171875)"/>
<path d="M0 0 C0.99 0.66 1.98 1.32 3 2 C-2.86416966 5.64268421 -8.83213161 9.10106443 -14.875 12.4375 C-15.83805054 12.98664063 -15.83805054 12.98664063 -16.82055664 13.546875 C-21.49927033 16.09297999 -21.49927033 16.09297999 -24.20751953 15.59008789 C-25.09479736 15.29799438 -25.09479736 15.29799438 -26 15 C-25.39003174 14.65219482 -24.78006348 14.30438965 -24.15161133 13.94604492 C-21.3715801 12.36043661 -18.59203592 10.7739764 -15.8125 9.1875 C-14.85279297 8.64029297 -13.89308594 8.09308594 -12.90429688 7.52929688 C-11.97294922 6.99755859 -11.04160156 6.46582031 -10.08203125 5.91796875 C-9.22843018 5.43094482 -8.3748291 4.9439209 -7.49536133 4.44213867 C-4.98003239 2.98846016 -2.48699751 1.50154666 0 0 Z " fill="#3C9BF7" transform="translate(361,261)"/>
<path d="M0 0 C3.78350254 1.39818571 7.08535378 3.14742411 10.51953125 5.2578125 C11.54111328 5.88300781 12.56269531 6.50820313 13.61523438 7.15234375 C15.19788086 8.12880859 15.19788086 8.12880859 16.8125 9.125 C17.88693359 9.78371094 18.96136719 10.44242187 20.06835938 11.12109375 C22.71436546 12.74397748 25.35813849 14.37038123 28 16 C25.32736178 17.33631911 23.58566329 17.17315262 20.75390625 16.3359375 C17.07949487 14.55345709 14.10685523 12.17930538 10.9375 9.625 C10.32583984 9.14289063 9.71417969 8.66078125 9.08398438 8.1640625 C5.86469068 5.60254881 2.83991028 2.98863376 0 0 Z " fill="#1754DE" transform="translate(248,342)"/>
<path d="M0 0 C0.66 0.66 1.32 1.32 2 2 C-0.20734149 3.471561 -2.41500464 4.9425812 -4.625 6.41015625 C-6.47319521 7.64735272 -8.3029721 8.91208047 -10.125 10.1875 C-13.33774676 12.21292731 -16.47861398 13.59144559 -20 15 C-20.66 14.34 -21.32 13.68 -22 13 C-14.74 8.71 -7.48 4.42 0 0 Z " fill="#3C9BF7" transform="translate(287,304)"/>
<path d="M0 0 C3.4675626 0.66561896 6.06690974 2.04734562 9.09765625 3.8359375 C10.06380859 4.40570312 11.02996094 4.97546875 12.02539062 5.5625 C13.52875977 6.4596875 13.52875977 6.4596875 15.0625 7.375 C16.06861328 7.96539063 17.07472656 8.55578125 18.11132812 9.1640625 C26.27179336 14.00473927 26.27179336 14.00473927 29 17 C24.8890468 16.41518015 22.04738378 15.06692518 18.515625 12.91015625 C16.99001953 11.98106445 16.99001953 11.98106445 15.43359375 11.03320312 C13.85771484 10.05770508 13.85771484 10.05770508 12.25 9.0625 C11.18394531 8.41603516 10.11789062 7.76957031 9.01953125 7.10351562 C1.13307806 2.26615612 1.13307806 2.26615612 0 0 Z " fill="#0C2986" transform="translate(533,688)"/>
<path d="M0 0 C0.99 0.66 1.98 1.32 3 2 C2.46632813 2.29132813 1.93265625 2.58265625 1.3828125 2.8828125 C-3.74785388 5.70556667 -8.72692147 8.67579709 -13.640625 11.86328125 C-16.30059111 13.14482121 -18.08427844 13.22229792 -21 13 C-16.86092559 9.44055929 -12.44728261 6.86171271 -7.6875 4.25 C-6.94693359 3.83878906 -6.20636719 3.42757813 -5.44335938 3.00390625 C-3.63120373 1.99845215 -1.8159158 0.998647 0 0 Z " fill="#3C9BF7" transform="translate(332,278)"/>
<path d="M0 0 C0 0.66 0 1.32 0 2 C-0.66 2 -1.32 2 -2 2 C-2 2.66 -2 3.32 -2 4 C-2.65226562 4.24234375 -3.30453125 4.4846875 -3.9765625 4.734375 C-9.97048349 7.01614482 -9.97048349 7.01614482 -15.4375 10.3125 C-16.7059375 11.1478125 -16.7059375 11.1478125 -18 12 C-18.99 11.67 -19.98 11.34 -21 11 C-18.23713877 7.79184246 -14.69157141 5.88357997 -11.0625 3.8125 C-10.44181641 3.44447266 -9.82113281 3.07644531 -9.18164062 2.69726562 C-5.76328245 0.73507707 -4.03504757 0 0 0 Z " fill="#3A9AF7" transform="translate(312,292)"/>
<path d="M0 0 C8.04536371 3.77750712 15.49595345 8.25998314 23 13 C20.42965246 13.9790581 19.36799984 14.16009056 16.80175781 13.04370117 C16.02670898 12.54845947 15.25166016 12.05321777 14.453125 11.54296875 C13.60878906 11.00736328 12.76445313 10.47175781 11.89453125 9.91992188 C11.02183594 9.34822266 10.14914062 8.77652344 9.25 8.1875 C7.91775391 7.34735352 7.91775391 7.34735352 6.55859375 6.49023438 C1.74393038 3.39509363 1.74393038 3.39509363 0 2 C0 1.34 0 0.68 0 0 Z " fill="#0D2884" transform="translate(573,711)"/>
<path d="M0 0 C1.19882812 0.15275391 1.19882812 0.15275391 2.421875 0.30859375 C3.02515625 0.39238281 3.6284375 0.47617188 4.25 0.5625 C4.25 1.5525 4.25 2.5425 4.25 3.5625 C3.39728516 3.40201172 3.39728516 3.40201172 2.52734375 3.23828125 C-3.33571752 2.3279896 -6.49878862 2.83187008 -11.75 5.5625 C-12.74 5.8925 -13.73 6.2225 -14.75 6.5625 C-15.41 5.9025 -16.07 5.2425 -16.75 4.5625 C-15.50264433 3.9115741 -14.25198168 3.26698331 -13 2.625 C-12.30390625 2.26535156 -11.6078125 1.90570313 -10.890625 1.53515625 C-7.02420722 -0.22166497 -4.21084068 -0.55731715 0 0 Z " fill="#409CF5" transform="translate(380.75,254.4375)"/>
<path d="M0 0 C-3.2878978 1.84015498 -6.58091326 3.67095047 -9.875 5.5 C-10.81214844 6.02464844 -11.74929688 6.54929687 -12.71484375 7.08984375 C-13.61074219 7.58613281 -14.50664063 8.08242188 -15.4296875 8.59375 C-16.25710449 9.05458984 -17.08452148 9.51542969 -17.93701172 9.99023438 C-20 11 -20 11 -22 11 C-22 10.34 -22 9.68 -22 9 C-19.09465435 7.29241747 -16.17416582 5.61261646 -13.25 3.9375 C-12.0125 3.20950195 -12.0125 3.20950195 -10.75 2.46679688 C-9.95078125 2.01240234 -9.1515625 1.55800781 -8.328125 1.08984375 C-7.5949707 0.66566162 -6.86181641 0.24147949 -6.10644531 -0.19555664 C-3.61993956 -1.14514362 -2.46152694 -0.89753304 0 0 Z " fill="#0E3191" transform="translate(545,300)"/>
<path d="M0 0 C1.32 0 2.64 0 4 0 C4 0.99 4 1.98 4 3 C6.68302391 5.15497211 6.68302391 5.15497211 10 7.1875 C10.57234375 7.55552734 11.1446875 7.92355469 11.734375 8.30273438 C13.15024462 9.21125071 14.57437797 10.10686477 16 11 C15.01 11.495 15.01 11.495 14 12 C9.05 8.7 4.1 5.4 -1 2 C-0.67 1.34 -0.34 0.68 0 0 Z " fill="#062287" transform="translate(493,325)"/>
<path d="M0 0 C3.3 0.99 6.6 1.98 10 3 C10.33 4.65 10.66 6.3 11 8 C9.53510951 7.43333454 8.07821997 6.84595772 6.625 6.25 C5.81289063 5.92515625 5.00078125 5.6003125 4.1640625 5.265625 C2 4 2 4 0 0 Z " fill="#1B5DE2" transform="translate(270,357)"/>
<path d="M0 0 C3.50640961 1.30326729 6.55925864 2.82491314 9.6875 4.875 C10.45449219 5.36742187 11.22148437 5.85984375 12.01171875 6.3671875 C14.12413402 8.1019411 14.98415894 9.49027504 16 12 C12.21751528 10.31991577 9.0307578 7.92161446 5.75 5.4375 C5.19570312 5.02564453 4.64140625 4.61378906 4.0703125 4.18945312 C2.69298825 3.15306751 1.3437077 2.07961421 0 1 C0 0.67 0 0.34 0 0 Z " fill="#0F43D3" transform="translate(248,342)"/>
<path d="M0 0 C5.8734807 1.63911089 9.59341067 3.890116 13 9 C13.125 11.6875 13.125 11.6875 13 14 C12.34 13.01 11.68 12.02 11 11 C7.64970636 6.62600553 4.64907767 3.9191883 0 1 C0 0.67 0 0.34 0 0 Z " fill="#133BAC" transform="translate(779,336)"/>
<path d="M0 0 C0.66 0.66 1.32 1.32 2 2 C-0.2008849 4.47859908 -2.06372969 5.61210366 -5.1875 6.6875 C-5.90292969 6.93886719 -6.61835938 7.19023437 -7.35546875 7.44921875 C-7.89816406 7.63097656 -8.44085938 7.81273437 -9 8 C-9.66 7.34 -10.32 6.68 -11 6 C-7.37 4.02 -3.74 2.04 0 0 Z " fill="#3D9BF7" transform="translate(253,324)"/>
<path d="M0 0 C0 0.66 0 1.32 0 2 C-0.66 2 -1.32 2 -2 2 C-2 2.66 -2 3.32 -2 4 C-3.98 4.33 -5.96 4.66 -8 5 C-5.96115496 0.48541456 -5.19128917 0 0 0 Z " fill="#42A1FB" transform="translate(312,292)"/>
<path d="M0 0 C4.95 0.99 4.95 0.99 10 2 C9.34 2.66 8.68 3.32 8 4 C4.375 3.625 4.375 3.625 1 3 C0.67 2.01 0.34 1.02 0 0 Z " fill="#1F46AF" transform="translate(631,253)"/>
<path d="M0 0 C0 0.66 0 1.32 0 2 C-4.15267176 5.11450382 -4.15267176 5.11450382 -7.3125 4.6875 C-7.869375 4.460625 -8.42625 4.23375 -9 4 C-2.25 0 -2.25 0 0 0 Z " fill="#14399B" transform="translate(623,256)"/>
<path d="M0 0 C0 0.66 0 1.32 0 2 C-4.15267176 5.11450382 -4.15267176 5.11450382 -7.3125 4.6875 C-7.869375 4.460625 -8.42625 4.23375 -9 4 C-2.25 0 -2.25 0 0 0 Z " fill="#0E2A85" transform="translate(652,734)"/>
<path d="M0 0 C0.99 0.33 1.98 0.66 3 1 C1 4 1 4 -2.125 4.6875 C-3.07375 4.790625 -4.0225 4.89375 -5 5 C-3.35 3.35 -1.7 1.7 0 0 Z " fill="#3D9BF4" transform="translate(240,331)"/>
<path d="M0 0 C2 1 2 1 2 1 Z " fill="#2656BE" transform="translate(742,312)"/>
<path d="M0 0 C2 1 2 1 2 1 Z " fill="#2655C1" transform="translate(702,289)"/>
<path d="M0 0 C2 1 2 1 2 1 Z " fill="#5AA5EE" transform="translate(352,264)"/>
<path d="" fill="#414447" transform="translate(0,0)"/>
<path d="" fill="#214099" transform="translate(0,0)"/>
<path d="" fill="#204199" transform="translate(0,0)"/>
<path d="" fill="#224098" transform="translate(0,0)"/>
<path d="" fill="#57A5EF" transform="translate(0,0)"/>
<path d="" fill="#56A2F0" transform="translate(0,0)"/>
<path d="" fill="#1F429A" transform="translate(0,0)"/>
<path d="" fill="#1C3E9B" transform="translate(0,0)"/>
<path d="" fill="#58A5F1" transform="translate(0,0)"/>
<path d="" fill="#1B3D97" transform="translate(0,0)"/>
<path d="" fill="#1C409A" transform="translate(0,0)"/>
<path d="" fill="#59AAF4" transform="translate(0,0)"/>
<path d="" fill="#59ACF7" transform="translate(0,0)"/>
<path d="" fill="#5DA9F4" transform="translate(0,0)"/>
<path d="" fill="#316CD3" transform="translate(0,0)"/>
<path d="" fill="#5CA7F1" transform="translate(0,0)"/>
<path d="" fill="#20459E" transform="translate(0,0)"/>
<path d="" fill="#5EA9F5" transform="translate(0,0)"/>
<path d="" fill="#1F44A1" transform="translate(0,0)"/>
<path d="" fill="#1E47A5" transform="translate(0,0)"/>
<path d="" fill="#1D429F" transform="translate(0,0)"/>
<path d="" fill="#5BA8F0" transform="translate(0,0)"/>
<path d="" fill="#5EA9F0" transform="translate(0,0)"/>
<path d="" fill="#5AA7F1" transform="translate(0,0)"/>
<path d="" fill="#5FA7EE" transform="translate(0,0)"/>
<path d="" fill="#2D59BF" transform="translate(0,0)"/>
<path d="" fill="#2C57BD" transform="translate(0,0)"/>
<path d="" fill="#326BC4" transform="translate(0,0)"/>
<path d="" fill="#397ED7" transform="translate(0,0)"/>
<path d="" fill="#2752C1" transform="translate(0,0)"/>
<path d="" fill="#2E63BE" transform="translate(0,0)"/>
<path d="" fill="#3E88DE" transform="translate(0,0)"/>
<path d="" fill="#5CA5EE" transform="translate(0,0)"/>
<path d="" fill="#428BE4" transform="translate(0,0)"/>
<path d="" fill="#2959B3" transform="translate(0,0)"/>
<path d="" fill="#2754AE" transform="translate(0,0)"/>
<path d="" fill="#2C5BB4" transform="translate(0,0)"/>
<path d="" fill="#2E60B8" transform="translate(0,0)"/>
<path d="" fill="#5EA8F1" transform="translate(0,0)"/>
<path d="" fill="#2951B0" transform="translate(0,0)"/>
<path d="" fill="#234AA9" transform="translate(0,0)"/>
<path d="" fill="#57A8F0" transform="translate(0,0)"/>
<path d="" fill="#4893ED" transform="translate(0,0)"/>
<path d="" fill="#2048A5" transform="translate(0,0)"/>
<path d="" fill="#4796E9" transform="translate(0,0)"/>
<path d="" fill="#5AA8F2" transform="translate(0,0)"/>
<path d="" fill="#2A57C0" transform="translate(0,0)"/>
<path d="" fill="#4998ED" transform="translate(0,0)"/>
<path d="" fill="#2046A4" transform="translate(0,0)"/>
<path d="" fill="#2148A5" transform="translate(0,0)"/>
<path d="" fill="#2048A4" transform="translate(0,0)"/>
<path d="" fill="#59A5F2" transform="translate(0,0)"/>
<path d="" fill="#2754C0" transform="translate(0,0)"/>
<path d="" fill="#58A6F3" transform="translate(0,0)"/>
<path d="" fill="#2045A3" transform="translate(0,0)"/>
<path d="" fill="#5AA5F2" transform="translate(0,0)"/>
<path d="" fill="#4E9EEC" transform="translate(0,0)"/>
<path d="" fill="#2B58C0" transform="translate(0,0)"/>
<path d="" fill="#2959BE" transform="translate(0,0)"/>
<path d="" fill="#2556BE" transform="translate(0,0)"/>
<path d="" fill="#4F9DEA" transform="translate(0,0)"/>
<path d="" fill="#5AA8F1" transform="translate(0,0)"/>
<path d="" fill="#2655BB" transform="translate(0,0)"/>
<path d="" fill="#5DA3E8" transform="translate(0,0)"/>
</svg>
